STARTFONT 2.1
FONT -Monotype-Nimrod-Regular-I-Normal--14-140-75-75-P-86-iso8859-5
SIZE 14 75 75
FONTBOUNDINGBOX 21 19 -3 -3

STARTPROPERTIES 24
FOUNDRY "Monotype"
FAMILY_NAME "Nimrod"
WEIGHT_NAME "Regular"
SLANT "I"
SETWIDTH_NAME "Normal"
ADD_STYLE_NAME ""
PIXEL_SIZE 14
POINT_SIZE 140
RESOLUTION_X 75
RESOLUTION_Y 75
SPACING "P"
AVERAGE_WIDTH 86
CHARSET_REGISTRY "iso8859"
CHARSET_ENCODING "5"
FACE_NAME "Nimrod Inclined ISO Latin Cyrillic"
_DEC_DEVICE_FONTNAMES "PS=nimrod-in-latcyrillic"
COPYRIGHT "Copyright (c) 1994 Monotype Typography Ltd."
CAP_HEIGHT 14
X_HEIGHT 10
WEIGHT 10
QUAD_WIDTH 11
DEFAULT_CHAR 160
FONT_DESCENT 4
FONT_ASCENT 16
ENDPROPERTIES

CHARS 191

STARTCHAR space
ENCODING 32
SWIDTH 250 0
DWIDTH 4 0
BBX 0 0 0 0
BITMAP
ENDCHAR

STARTCHAR exclam
ENCODING 33
SWIDTH 354 0
DWIDTH 5 0
BBX 4 12 1 0
BITMAP
10
10
20
20
20
20
40
40
00
00
80
80
ENDCHAR

STARTCHAR quotedbl
ENCODING 34
SWIDTH 417 0
DWIDTH 6 0
BBX 5 4 1 8
BITMAP
48
48
90
90
ENDCHAR

STARTCHAR numbersign
ENCODING 35
SWIDTH 667 0
DWIDTH 10 0
BBX 9 12 1 0
BITMAP
1100
1100
1100
7F80
2200
2200
2200
2200
FF00
4400
4400
4400
ENDCHAR

STARTCHAR dollar
ENCODING 36
SWIDTH 500 0
DWIDTH 8 0
BBX 9 14 0 -2
BITMAP
0400
1F00
2480
2580
2500
2800
1C00
0A00
5200
D200
9200
7C00
1000
1000
ENDCHAR

STARTCHAR percent
ENCODING 37
SWIDTH 1000 0
DWIDTH 15 0
BBX 11 12 2 0
BITMAP
3100
4900
4A00
9200
9400
6400
08C0
0920
1120
1240
2240
2180
ENDCHAR

STARTCHAR ampersand
ENCODING 38
SWIDTH 854 0
DWIDTH 13 0
BBX 11 12 1 0
BITMAP
0700
0880
0880
0900
0A00
1C00
64E0
8440
8240
8280
C320
7DC0
ENDCHAR

STARTCHAR quoteright
ENCODING 39
SWIDTH 281 0
DWIDTH 4 0
BBX 3 4 0 8
BITMAP
60
20
20
C0
ENDCHAR

STARTCHAR parenleft
ENCODING 40
SWIDTH 354 0
DWIDTH 5 0
BBX 6 15 0 -3
BITMAP
0C
30
20
40
40
80
80
80
80
80
80
80
40
40
20
ENDCHAR

STARTCHAR parenright
ENCODING 41
SWIDTH 354 0
DWIDTH 5 0
BBX 6 15 -2 -3
BITMAP
10
08
08
04
04
04
04
04
04
04
08
08
10
30
C0
ENDCHAR

STARTCHAR asterisk
ENCODING 42
SWIDTH 469 0
DWIDTH 7 0
BBX 6 6 1 6
BITMAP
10
D0
5C
34
D0
18
ENDCHAR

STARTCHAR plus
ENCODING 43
SWIDTH 667 0
DWIDTH 10 0
BBX 7 7 2 1
BITMAP
10
10
10
FE
10
10
10
ENDCHAR

STARTCHAR comma
ENCODING 44
SWIDTH 281 0
DWIDTH 4 0
BBX 3 4 0 -2
BITMAP
60
20
20
C0
ENDCHAR

STARTCHAR minus
ENCODING 45
SWIDTH 667 0
DWIDTH 10 0
BBX 8 1 1 4
BITMAP
FF
ENDCHAR

STARTCHAR period
ENCODING 46
SWIDTH 281 0
DWIDTH 4 0
BBX 1 2 1 0
BITMAP
80
80
ENDCHAR

STARTCHAR slash
ENCODING 47
SWIDTH 510 0
DWIDTH 8 0
BBX 8 12 0 0
BITMAP
03
02
04
04
08
08
10
10
20
20
40
C0
ENDCHAR

STARTCHAR zero
ENCODING 48
SWIDTH 500 0
DWIDTH 8 0
BBX 7 12 1 0
BITMAP
1C
22
22
42
42
44
44
84
84
88
88
70
ENDCHAR

STARTCHAR one
ENCODING 49
SWIDTH 500 0
DWIDTH 8 0
BBX 4 12 2 0
BITMAP
10
30
10
10
20
20
20
20
40
40
40
E0
ENDCHAR

STARTCHAR two
ENCODING 50
SWIDTH 500 0
DWIDTH 8 0
BBX 7 12 0 0
BITMAP
3C
42
42
62
22
04
08
10
20
42
84
FC
ENDCHAR

STARTCHAR three
ENCODING 51
SWIDTH 500 0
DWIDTH 8 0
BBX 8 12 0 0
BITMAP
1E
21
31
11
02
1C
04
02
42
C2
84
78
ENDCHAR

STARTCHAR four
ENCODING 52
SWIDTH 500 0
DWIDTH 8 0
BBX 6 12 1 0
BITMAP
04
0C
14
14
24
48
48
88
FC
10
10
38
ENDCHAR

STARTCHAR five
ENCODING 53
SWIDTH 500 0
DWIDTH 8 0
BBX 7 12 0 0
BITMAP
3E
20
20
20
78
44
02
02
42
C2
84
78
ENDCHAR

STARTCHAR six
ENCODING 54
SWIDTH 500 0
DWIDTH 8 0
BBX 8 12 0 0
BITMAP
0E
13
21
20
40
5C
62
42
82
84
84
78
ENDCHAR

STARTCHAR seven
ENCODING 55
SWIDTH 500 0
DWIDTH 8 0
BBX 7 12 1 0
BITMAP
7E
42
84
04
08
08
10
10
20
20
60
40
ENDCHAR

STARTCHAR eight
ENCODING 56
SWIDTH 500 0
DWIDTH 8 0
BBX 7 12 1 0
BITMAP
1C
22
42
42
44
38
48
84
84
84
88
70
ENDCHAR

STARTCHAR nine
ENCODING 57
SWIDTH 500 0
DWIDTH 8 0
BBX 8 12 0 0
BITMAP
1E
21
21
41
42
46
3A
02
04
84
C8
70
ENDCHAR

STARTCHAR colon
ENCODING 58
SWIDTH 281 0
DWIDTH 4 0
BBX 2 8 1 0
BITMAP
40
40
00
00
00
00
80
80
ENDCHAR

STARTCHAR semicolon
ENCODING 59
SWIDTH 281 0
DWIDTH 4 0
BBX 4 10 0 -2
BITMAP
10
10
00
00
00
00
60
20
20
C0
ENDCHAR

STARTCHAR less
ENCODING 60
SWIDTH 667 0
DWIDTH 10 0
BBX 8 7 1 1
BITMAP
03
0C
30
C0
30
0C
03
ENDCHAR

STARTCHAR equal
ENCODING 61
SWIDTH 667 0
DWIDTH 10 0
BBX 8 3 1 3
BITMAP
FF
00
FF
ENDCHAR

STARTCHAR greater
ENCODING 62
SWIDTH 667 0
DWIDTH 10 0
BBX 8 7 1 1
BITMAP
C0
30
0C
03
0C
30
C0
ENDCHAR

STARTCHAR question
ENCODING 63
SWIDTH 427 0
DWIDTH 6 0
BBX 5 12 1 0
BITMAP
70
C8
88
08
08
10
20
40
40
00
80
80
ENDCHAR

STARTCHAR at
ENCODING 64
SWIDTH 917 0
DWIDTH 14 0
BBX 12 15 1 -3
BITMAP
0700
18C0
2020
46A0
4990
8890
8890
9190
9110
9B20
4DC0
4010
2020
18C0
0700
ENDCHAR

STARTCHAR A
ENCODING 65
SWIDTH 771 0
DWIDTH 12 0
BBX 12 12 0 0
BITMAP
0080
0180
0180
0280
0480
0440
0840
1040
1FC0
2020
4020
E070
ENDCHAR

STARTCHAR B
ENCODING 66
SWIDTH 740 0
DWIDTH 11 0
BBX 10 12 1 0
BITMAP
3F00
1080
1040
1040
2080
3F00
2100
2080
4080
4080
4100
FE00
ENDCHAR

STARTCHAR C
ENCODING 67
SWIDTH 708 0
DWIDTH 11 0
BBX 10 12 2 0
BITMAP
0780
18C0
2040
4040
4000
8000
8000
8000
8000
8080
4300
3C00
ENDCHAR

STARTCHAR D
ENCODING 68
SWIDTH 792 0
DWIDTH 12 0
BBX 11 12 1 0
BITMAP
3F80
1040
1020
1020
2020
2020
2020
2040
4040
4080
4300
FC00
ENDCHAR

STARTCHAR E
ENCODING 69
SWIDTH 708 0
DWIDTH 11 0
BBX 11 12 1 0
BITMAP
3FE0
1060
1040
1140
2100
3E00
2200
2200
4080
4080
4180
FF00
ENDCHAR

STARTCHAR F
ENCODING 70
SWIDTH 698 0
DWIDTH 10 0
BBX 11 12 1 0
BITMAP
3FE0
1060
1040
1140
2100
3E00
2200
2200
4000
4000
4000
E000
ENDCHAR

STARTCHAR G
ENCODING 71
SWIDTH 802 0
DWIDTH 12 0
BBX 10 12 2 0
BITMAP
0780
18C0
2040
4040
4000
8000
81C0
8080
8080
8080
4300
3C00
ENDCHAR

STARTCHAR H
ENCODING 72
SWIDTH 812 0
DWIDTH 12 0
BBX 12 12 1 0
BITMAP
3870
1020
1020
1020
2040
3FC0
2040
2040
4080
4080
4080
E1C0
ENDCHAR

STARTCHAR I
ENCODING 73
SWIDTH 417 0
DWIDTH 5 0
BBX 5 12 1 0
BITMAP
38
10
10
10
20
20
20
20
40
40
40
E0
ENDCHAR

STARTCHAR J
ENCODING 74
SWIDTH 604 0
DWIDTH 9 0
BBX 9 12 1 0
BITMAP
0380
0100
0100
0100
0200
0200
0200
6200
C400
8400
8800
7000
ENDCHAR

STARTCHAR K
ENCODING 75
SWIDTH 760 0
DWIDTH 11 0
BBX 12 12 1 0
BITMAP
3870
1020
1040
1080
2100
2200
2C00
3200
4100
4100
4080
E1C0
ENDCHAR

STARTCHAR L
ENCODING 76
SWIDTH 667 0
DWIDTH 10 0
BBX 9 12 1 0
BITMAP
3800
1000
1000
1000
2000
2000
2000
2000
4080
4080
4180
FF00
ENDCHAR

STARTCHAR M
ENCODING 77
SWIDTH 979 0
DWIDTH 14 0
BBX 15 12 0 0
BITMAP
1C0E
0C1C
0C14
1424
1428
1448
2448
2288
2290
4310
4310
E238
ENDCHAR

STARTCHAR N
ENCODING 78
SWIDTH 823 0
DWIDTH 12 0
BBX 12 12 1 0
BITMAP
3070
1820
1820
1420
2440
2240
2240
2240
4180
4180
4080
E080
ENDCHAR

STARTCHAR O
ENCODING 79
SWIDTH 792 0
DWIDTH 12 0
BBX 11 12 1 0
BITMAP
0780
1840
2020
4020
4020
8020
8020
8040
8040
8080
4300
3C00
ENDCHAR

STARTCHAR P
ENCODING 80
SWIDTH 698 0
DWIDTH 10 0
BBX 10 12 1 0
BITMAP
3F00
1080
1040
1040
2040
2080
3F00
2000
4000
4000
4000
E000
ENDCHAR

STARTCHAR Q
ENCODING 81
SWIDTH 792 0
DWIDTH 12 0
BBX 11 14 1 -2
BITMAP
0780
1840
2020
4020
4020
8020
8020
9840
A440
C280
4300
3E00
0180
00E0
ENDCHAR

STARTCHAR R
ENCODING 82
SWIDTH 760 0
DWIDTH 11 0
BBX 10 12 1 0
BITMAP
3F00
1080
1040
1040
2040
2080
3F00
2200
4200
4100
4100
E180
ENDCHAR

STARTCHAR S
ENCODING 83
SWIDTH 646 0
DWIDTH 10 0
BBX 9 12 1 0
BITMAP
1F00
2180
4080
4080
4000
3800
0600
0100
8100
8100
C200
7C00
ENDCHAR

STARTCHAR T
ENCODING 84
SWIDTH 750 0
DWIDTH 11 0
BBX 11 12 2 0
BITMAP
FFE0
C460
8440
8440
0800
0800
0800
0800
1000
1000
1000
3800
ENDCHAR

STARTCHAR U
ENCODING 85
SWIDTH 760 0
DWIDTH 11 0
BBX 11 12 1 0
BITMAP
70E0
2040
2040
2040
4080
4080
4080
8100
8100
8100
4200
3C00
ENDCHAR

STARTCHAR V
ENCODING 86
SWIDTH 740 0
DWIDTH 11 0
BBX 11 12 2 0
BITMAP
E1E0
40C0
4080
4100
4100
2200
2200
2400
2400
2800
1800
1000
ENDCHAR

STARTCHAR W
ENCODING 87
SWIDTH 979 0
DWIDTH 15 0
BBX 16 12 1 0
BITMAP
E38F
4106
4104
4308
4308
4510
4510
4920
4920
5140
6180
4100
ENDCHAR

STARTCHAR X
ENCODING 88
SWIDTH 750 0
DWIDTH 11 0
BBX 13 12 0 0
BITMAP
3838
1010
0820
0840
0480
0700
0600
0900
1080
2080
4040
E0E0
ENDCHAR

STARTCHAR Y
ENCODING 89
SWIDTH 708 0
DWIDTH 11 0
BBX 10 12 2 0
BITMAP
E1C0
4080
2100
2200
1400
1800
0800
0800
1000
1000
1000
3800
ENDCHAR

STARTCHAR Z
ENCODING 90
SWIDTH 687 0
DWIDTH 10 0
BBX 9 12 1 0
BITMAP
3F80
6080
4100
4200
0400
0800
0800
1000
2100
4100
8300
FE00
ENDCHAR

STARTCHAR bracketleft
ENCODING 91
SWIDTH 344 0
DWIDTH 5 0
BBX 5 15 0 -3
BITMAP
38
20
20
20
20
40
40
40
40
40
80
80
80
80
E0
ENDCHAR

STARTCHAR backslash
ENCODING 92
SWIDTH 510 0
DWIDTH 8 0
BBX 8 12 0 0
BITMAP
C0
40
20
20
10
10
08
08
04
04
02
03
ENDCHAR

STARTCHAR bracketright
ENCODING 93
SWIDTH 344 0
DWIDTH 5 0
BBX 5 15 0 -3
BITMAP
38
08
08
08
08
10
10
10
10
10
20
20
20
20
E0
ENDCHAR

STARTCHAR asciicircum
ENCODING 94
SWIDTH 427 0
DWIDTH 6 0
BBX 7 5 0 7
BITMAP
10
10
28
44
82
ENDCHAR

STARTCHAR underscore
ENCODING 95
SWIDTH 500 0
DWIDTH 8 0
BBX 8 1 0 -3
BITMAP
FF
ENDCHAR

STARTCHAR quoteleft
ENCODING 96
SWIDTH 281 0
DWIDTH 4 0
BBX 3 4 1 8
BITMAP
60
80
80
C0
ENDCHAR

STARTCHAR a
ENCODING 97
SWIDTH 604 0
DWIDTH 9 0
BBX 8 8 1 0
BITMAP
1A
66
42
82
84
84
8D
76
ENDCHAR

STARTCHAR b
ENCODING 98
SWIDTH 604 0
DWIDTH 9 0
BBX 7 12 1 0
BITMAP
60
20
20
20
5C
62
42
42
82
84
C4
B8
ENDCHAR

STARTCHAR c
ENCODING 99
SWIDTH 448 0
DWIDTH 7 0
BBX 7 8 1 0
BITMAP
1C
66
42
80
80
80
88
70
ENDCHAR

STARTCHAR d
ENCODING 100
SWIDTH 604 0
DWIDTH 9 0
BBX 8 12 1 0
BITMAP
03
01
01
01
1A
66
42
82
84
84
8D
76
ENDCHAR

STARTCHAR e
ENCODING 101
SWIDTH 448 0
DWIDTH 7 0
BBX 7 8 1 0
BITMAP
1C
62
42
84
F8
80
84
78
ENDCHAR

STARTCHAR f
ENCODING 102
SWIDTH 344 0
DWIDTH 5 0
BBX 12 15 -3 -3
BITMAP
00E0
0130
0110
0100
0780
0200
0200
0200
0400
0400
0400
0800
0800
C800
7000
ENDCHAR

STARTCHAR g
ENCODING 103
SWIDTH 583 0
DWIDTH 9 0
BBX 9 11 0 -3
BITMAP
0E80
1100
2100
2100
2200
3C00
4000
7C00
8200
8200
7C00
ENDCHAR

STARTCHAR h
ENCODING 104
SWIDTH 635 0
DWIDTH 10 0
BBX 8 12 1 0
BITMAP
60
20
20
20
5C
62
42
42
84
84
85
82
ENDCHAR

STARTCHAR i
ENCODING 105
SWIDTH 344 0
DWIDTH 5 0
BBX 3 12 1 0
BITMAP
20
20
00
00
C0
40
40
40
80
80
A0
40
ENDCHAR

STARTCHAR j
ENCODING 106
SWIDTH 344 0
DWIDTH 5 0
BBX 7 15 -2 -3
BITMAP
02
02
00
00
0C
04
04
04
08
08
08
08
10
D0
60
ENDCHAR

STARTCHAR k
ENCODING 107
SWIDTH 594 0
DWIDTH 9 0
BBX 8 12 1 0
BITMAP
60
20
20
20
46
4B
48
50
68
88
8A
84
ENDCHAR

STARTCHAR l
ENCODING 108
SWIDTH 344 0
DWIDTH 5 0
BBX 3 12 1 0
BITMAP
60
20
20
20
40
40
40
40
80
80
A0
40
ENDCHAR

STARTCHAR m
ENCODING 109
SWIDTH 906 0
DWIDTH 14 0
BBX 13 8 1 0
BITMAP
DCE0
6310
4210
4210
8420
8420
8428
8410
ENDCHAR

STARTCHAR n
ENCODING 110
SWIDTH 635 0
DWIDTH 10 0
BBX 8 8 1 0
BITMAP
DC
62
42
42
84
84
85
82
ENDCHAR

STARTCHAR o
ENCODING 111
SWIDTH 531 0
DWIDTH 8 0
BBX 7 8 1 0
BITMAP
1C
62
42
82
82
84
8C
70
ENDCHAR

STARTCHAR p
ENCODING 112
SWIDTH 594 0
DWIDTH 9 0
BBX 9 11 0 -3
BITMAP
3700
1880
1080
2080
2080
2100
2300
5C00
4000
4000
E000
ENDCHAR

STARTCHAR q
ENCODING 113
SWIDTH 573 0
DWIDTH 9 0
BBX 8 11 1 -3
BITMAP
1D
62
42
82
84
84
8C
74
08
08
1C
ENDCHAR

STARTCHAR r
ENCODING 114
SWIDTH 490 0
DWIDTH 6 0
BBX 6 8 1 0
BITMAP
D8
6C
40
40
80
80
80
80
ENDCHAR

STARTCHAR s
ENCODING 115
SWIDTH 448 0
DWIDTH 7 0
BBX 7 8 0 0
BITMAP
3C
46
42
30
08
84
C4
78
ENDCHAR

STARTCHAR t
ENCODING 116
SWIDTH 354 0
DWIDTH 5 0
BBX 4 11 1 0
BITMAP
20
20
20
F0
40
40
40
80
80
90
60
ENDCHAR

STARTCHAR u
ENCODING 117
SWIDTH 635 0
DWIDTH 10 0
BBX 8 8 1 0
BITMAP
C2
42
42
42
84
84
8D
76
ENDCHAR

STARTCHAR v
ENCODING 118
SWIDTH 542 0
DWIDTH 8 0
BBX 7 8 1 0
BITMAP
C4
46
42
42
84
84
88
70
ENDCHAR

STARTCHAR w
ENCODING 119
SWIDTH 812 0
DWIDTH 12 0
BBX 10 8 1 0
BITMAP
C480
44C0
4440
4440
8840
8880
8880
7700
ENDCHAR

STARTCHAR x
ENCODING 120
SWIDTH 583 0
DWIDTH 9 0
BBX 10 8 0 0
BITMAP
1180
2AC0
0A00
0C00
0C00
1400
D500
6200
ENDCHAR

STARTCHAR y
ENCODING 121
SWIDTH 521 0
DWIDTH 8 0
BBX 8 11 0 -3
BITMAP
42
A3
21
21
22
12
14
18
90
D0
60
ENDCHAR

STARTCHAR z
ENCODING 122
SWIDTH 510 0
DWIDTH 8 0
BBX 8 8 0 0
BITMAP
3B
4E
04
08
10
20
72
DC
ENDCHAR

STARTCHAR braceleft
ENCODING 123
SWIDTH 479 0
DWIDTH 7 0
BBX 5 15 2 -3
BITMAP
18
20
20
20
20
20
40
80
40
40
40
40
80
80
40
ENDCHAR

STARTCHAR bar
ENCODING 124
SWIDTH 510 0
DWIDTH 8 0
BBX 1 12 3 0
BITMAP
80
80
80
80
80
80
80
80
80
80
80
80
ENDCHAR

STARTCHAR braceright
ENCODING 125
SWIDTH 479 0
DWIDTH 7 0
BBX 5 15 0 -3
BITMAP
10
08
08
10
10
10
10
08
10
20
20
20
20
20
C0
ENDCHAR

STARTCHAR asciitilde
ENCODING 126
SWIDTH 667 0
DWIDTH 10 0
BBX 8 2 1 4
BITMAP
71
8E
ENDCHAR

STARTCHAR space
ENCODING 160
SWIDTH 250 0
DWIDTH 5 0
BBX 0 0 0 0
BITMAP
ENDCHAR

STARTCHAR afii10023
ENCODING 161
SWIDTH 708 0
DWIDTH 11 0
BBX 11 15 1 0
BITMAP
0880
0880
0000
3FE0
1060
1040
1140
2100
3E00
2200
2200
4080
4080
4180
FF00
ENDCHAR

STARTCHAR afii10051
ENCODING 162
SWIDTH 842 0
DWIDTH 13 0
BBX 11 12 1 0
BITMAP
FFC0
C8C0
8840
0800
1380
1440
1820
1020
2020
2020
2040
7180
ENDCHAR

STARTCHAR afii10052
ENCODING 163
SWIDTH 676 0
DWIDTH 10 0
BBX 10 16 1 0
BITMAP
0300
0200
0400
0000
3FC0
10C0
1080
1080
2000
2000
2000
2000
4000
4000
4000
E000
ENDCHAR

STARTCHAR afii10053
ENCODING 164
SWIDTH 708 0
DWIDTH 11 0
BBX 10 12 2 0
BITMAP
0780
18C0
2040
4040
4000
FC00
8000
8000
8000
8080
4300
3C00
ENDCHAR

STARTCHAR afii10054
ENCODING 165
SWIDTH 646 0
DWIDTH 10 0
BBX 9 12 1 0
BITMAP
1F00
2180
4080
4080
4000
3800
0600
0100
8100
8100
C200
7C00
ENDCHAR

STARTCHAR afii10055
ENCODING 166
SWIDTH 406 0
DWIDTH 5 0
BBX 5 12 1 0
BITMAP
38
10
10
10
20
20
20
20
40
40
40
E0
ENDCHAR

STARTCHAR afii10056
ENCODING 167
SWIDTH 406 0
DWIDTH 5 0
BBX 6 15 1 0
BITMAP
44
44
00
38
10
10
10
20
20
20
20
40
40
40
E0
ENDCHAR

STARTCHAR afii10057
ENCODING 168
SWIDTH 615 0
DWIDTH 9 0
BBX 9 12 1 0
BITMAP
0380
0100
0100
0100
0200
0200
0200
6200
C400
8400
8800
7000
ENDCHAR

STARTCHAR afii10058
ENCODING 169
SWIDTH 1096 0
DWIDTH 16 0
BBX 15 12 0 0
BITMAP
0FF8
0220
0220
0220
0440
0478
0444
0842
0882
C882
9084
61F8
ENDCHAR

STARTCHAR afii10059
ENCODING 170
SWIDTH 1061 0
DWIDTH 16 0
BBX 14 12 1 0
BITMAP
38E0
1040
1040
1040
2080
3FF8
2084
2084
4104
4104
4108
E3F0
ENDCHAR

STARTCHAR afii10060
ENCODING 171
SWIDTH 847 0
DWIDTH 13 0
BBX 10 12 2 0
BITMAP
FFC0
C8C0
8880
0800
1380
1440
1840
1040
2080
2080
2080
71C0
ENDCHAR

STARTCHAR afii10061
ENCODING 172
SWIDTH 779 0
DWIDTH 12 0
BBX 11 16 1 0
BITMAP
00C0
0080
0100
0000
38E0
1120
1100
1200
2200
2400
3C00
2600
4200
4100
4100
E180
ENDCHAR

STARTCHAR hyphen
ENCODING 173
SWIDTH 281 0
DWIDTH 4 0
BBX 4 1 0 4
BITMAP
F0
ENDCHAR

STARTCHAR afii10062
ENCODING 174
SWIDTH 738 0
DWIDTH 11 0
BBX 12 16 1 0
BITMAP
0880
0880
0700
0000
7070
2020
2040
2080
1080
1100
1200
1200
0C00
C800
9000
6000
ENDCHAR

STARTCHAR afii10145
ENCODING 175
SWIDTH 823 0
DWIDTH 12 0
BBX 12 15 1 -3
BITMAP
3870
1020
1020
1020
2040
2040
2040
2040
4080
4080
4080
FFC0
0800
0800
0800
ENDCHAR

STARTCHAR afii10017
ENCODING 176
SWIDTH 753 0
DWIDTH 12 0
BBX 12 12 0 0
BITMAP
0080
0180
0180
0280
0480
0440
0840
1040
1FC0
2020
4020
E070
ENDCHAR

STARTCHAR afii10018
ENCODING 177
SWIDTH 767 0
DWIDTH 12 0
BBX 11 12 1 0
BITMAP
3FE0
1060
1040
1040
2000
3F00
2080
2040
4040
4040
4080
FF00
ENDCHAR

STARTCHAR afii10019
ENCODING 178
SWIDTH 766 0
DWIDTH 11 0
BBX 10 12 1 0
BITMAP
3F00
1080
1040
1040
2080
3F00
2100
2080
4080
4080
4100
FE00
ENDCHAR

STARTCHAR afii10020
ENCODING 179
SWIDTH 676 0
DWIDTH 10 0
BBX 10 12 1 0
BITMAP
3FC0
10C0
1080
1080
2000
2000
2000
2000
4000
4000
4000
E000
ENDCHAR

STARTCHAR afii10021
ENCODING 180
SWIDTH 803 0
DWIDTH 12 0
BBX 14 14 -1 -2
BITMAP
07FC
0208
0208
0208
0410
0410
0410
0810
0820
1020
2020
FFF0
C030
8010
ENDCHAR

STARTCHAR afii10022
ENCODING 181
SWIDTH 708 0
DWIDTH 11 0
BBX 11 12 1 0
BITMAP
3FE0
1060
1040
1140
2100
3E00
2200
2200
4080
4080
4180
FF00
ENDCHAR

STARTCHAR afii10024
ENCODING 182
SWIDTH 1175 0
DWIDTH 18 0
BBX 17 12 1 0
BITMAP
70E380
484480
084400
044800
048800
029000
0FF000
189800
210400
210400
410200
C38100
ENDCHAR

STARTCHAR afii10025
ENCODING 183
SWIDTH 632 0
DWIDTH 9 0
BBX 10 12 0 0
BITMAP
1F80
3040
2040
2040
0180
0E00
0300
0080
0080
8080
4100
3E00
ENDCHAR

STARTCHAR afii10026
ENCODING 184
SWIDTH 823 0
DWIDTH 12 0
BBX 12 12 1 0
BITMAP
38F0
1060
10A0
1120
2240
2440
2440
2840
5080
6080
4080
E1C0
ENDCHAR

STARTCHAR afii10027
ENCODING 185
SWIDTH 823 0
DWIDTH 12 0
BBX 12 16 1 0
BITMAP
0840
0840
0780
0000
38F0
1060
10A0
1120
2240
2440
2440
2840
5080
6080
4080
E1C0
ENDCHAR

STARTCHAR afii10028
ENCODING 186
SWIDTH 779 0
DWIDTH 12 0
BBX 11 12 1 0
BITMAP
38E0
1120
1100
1200
2200
2400
3C00
2600
4200
4100
4100
E180
ENDCHAR

STARTCHAR afii10029
ENCODING 187
SWIDTH 830 0
DWIDTH 12 0
BBX 14 12 -1 0
BITMAP
07FC
0208
0208
0208
0410
0410
0410
0810
0820
C820
9020
6070
ENDCHAR

STARTCHAR afii10030
ENCODING 188
SWIDTH 979 0
DWIDTH 14 0
BBX 15 12 0 0
BITMAP
1C0E
0C1C
0C14
1424
1428
1448
2448
2288
2290
4310
4310
E238
ENDCHAR

STARTCHAR afii10031
ENCODING 189
SWIDTH 812 0
DWIDTH 12 0
BBX 12 12 1 0
BITMAP
3870
1020
1020
1020
2040
3FC0
2040
2040
4080
4080
4080
E1C0
ENDCHAR

STARTCHAR afii10032
ENCODING 190
SWIDTH 787 0
DWIDTH 12 0
BBX 11 12 1 0
BITMAP
0780
1840
2020
4020
4020
8020
8020
8040
8040
8080
4300
3C00
ENDCHAR

STARTCHAR afii10033
ENCODING 191
SWIDTH 823 0
DWIDTH 12 0
BBX 12 12 1 0
BITMAP
3FF0
1020
1020
1020
2040
2040
2040
2040
4080
4080
4080
E1C0
ENDCHAR

STARTCHAR afii10034
ENCODING 192
SWIDTH 704 0
DWIDTH 10 0
BBX 10 12 1 0
BITMAP
3F00
1080
1040
1040
2040
2080
3F00
2000
4000
4000
4000
E000
ENDCHAR

STARTCHAR afii10035
ENCODING 193
SWIDTH 708 0
DWIDTH 11 0
BBX 10 12 2 0
BITMAP
0780
18C0
2040
4040
4000
8000
8000
8000
8000
8080
4300
3C00
ENDCHAR

STARTCHAR afii10036
ENCODING 194
SWIDTH 708 0
DWIDTH 11 0
BBX 11 12 2 0
BITMAP
FFE0
C460
8440
8440
0800
0800
0800
0800
1000
1000
1000
3800
ENDCHAR

STARTCHAR afii10037
ENCODING 195
SWIDTH 738 0
DWIDTH 11 0
BBX 12 12 1 0
BITMAP
7070
2020
2040
2080
1080
1100
1200
1200
0C00
C800
9000
6000
ENDCHAR

STARTCHAR afii10038
ENCODING 196
SWIDTH 874 0
DWIDTH 13 0
BBX 11 12 2 0
BITMAP
0700
0200
1F80
2240
4420
8420
8420
8440
8980
7E00
0800
3C00
ENDCHAR

STARTCHAR afii10039
ENCODING 197
SWIDTH 760 0
DWIDTH 11 0
BBX 13 12 0 0
BITMAP
3838
1010
0820
0840
0480
0700
0600
0900
1080
2080
4040
E0E0
ENDCHAR

STARTCHAR afii10040
ENCODING 198
SWIDTH 823 0
DWIDTH 12 0
BBX 12 14 1 -2
BITMAP
3870
1020
1020
1020
2040
2040
2040
2040
4080
4080
4080
FFC0
0040
0040
ENDCHAR

STARTCHAR afii10041
ENCODING 199
SWIDTH 779 0
DWIDTH 12 0
BBX 10 12 3 0
BITMAP
E1C0
4080
4080
4080
8100
8300
8500
7900
0200
0200
0200
0700
ENDCHAR

STARTCHAR afii10042
ENCODING 200
SWIDTH 1141 0
DWIDTH 15 0
BBX 15 12 1 0
BITMAP
39CE
1084
1084
1084
2108
2108
2108
2108
4210
4210
4210
FFF8
ENDCHAR

STARTCHAR afii10043
ENCODING 201
SWIDTH 1132 0
DWIDTH 15 0
BBX 15 15 1 -3
BITMAP
39CE
1084
1084
1084
2108
2108
2108
2108
4210
4210
4210
FFF8
0008
0008
0008
ENDCHAR

STARTCHAR afii10044
ENCODING 202
SWIDTH 881 0
DWIDTH 13 0
BBX 11 12 1 0
BITMAP
7E00
C400
8400
8400
0800
0FC0
0820
0820
1020
1020
1040
3F80
ENDCHAR

STARTCHAR afii10045
ENCODING 203
SWIDTH 1083 0
DWIDTH 16 0
BBX 16 12 0 0
BITMAP
3807
1002
1002
1002
2004
3F04
2084
2044
4048
4048
4088
FF1C
ENDCHAR

STARTCHAR afii10046
ENCODING 204
SWIDTH 739 0
DWIDTH 11 0
BBX 9 12 1 0
BITMAP
3800
1000
1000
1000
2000
3F00
2080
2080
4080
4080
4100
FE00
ENDCHAR

STARTCHAR afii10047
ENCODING 205
SWIDTH 703 0
DWIDTH 11 0
BBX 10 12 1 0
BITMAP
1F00
3080
2040
2040
0040
0FC0
0040
0080
0080
8100
4200
3C00
ENDCHAR

STARTCHAR afii10048
ENCODING 206
SWIDTH 1133 0
DWIDTH 17 0
BBX 16 12 1 0
BITMAP
383C
10C2
1101
1201
2201
2401
3C01
2402
4402
4404
4218
E1E0
ENDCHAR

STARTCHAR afii10049
ENCODING 207
SWIDTH 746 0
DWIDTH 11 0
BBX 11 12 1 0
BITMAP
0FE0
1040
2040
2040
2080
1080
0F80
1080
2100
2100
4100
C380
ENDCHAR

STARTCHAR afii10065
ENCODING 208
SWIDTH 604 0
DWIDTH 9 0
BBX 8 8 1 0
BITMAP
1A
66
42
82
84
84
8D
76
ENDCHAR

STARTCHAR afii10066
ENCODING 209
SWIDTH 551 0
DWIDTH 8 0
BBX 9 11 1 0
BITMAP
0180
1E00
2000
5C00
6200
4200
8200
8200
8400
8C00
7000
ENDCHAR

STARTCHAR afii10067
ENCODING 210
SWIDTH 488 0
DWIDTH 7 0
BBX 7 8 1 0
BITMAP
1C
62
42
84
F8
84
84
78
ENDCHAR

STARTCHAR afii10068
ENCODING 211
SWIDTH 439 0
DWIDTH 7 0
BBX 7 8 0 0
BITMAP
3C
62
42
0C
70
84
8C
78
ENDCHAR

STARTCHAR afii10069
ENCODING 212
SWIDTH 542 0
DWIDTH 8 0
BBX 7 12 1 0
BITMAP
38
04
04
02
1A
66
42
82
82
84
8C
70
ENDCHAR

STARTCHAR afii10070
ENCODING 213
SWIDTH 458 0
DWIDTH 7 0
BBX 7 8 1 0
BITMAP
1C
62
42
84
F8
80
84
78
ENDCHAR

STARTCHAR afii10072
ENCODING 214
SWIDTH 975 0
DWIDTH 15 0
BBX 15 8 0 0
BITMAP
188C
2CB2
04A6
07E0
0D40
C940
9968
6130
ENDCHAR

STARTCHAR afii10073
ENCODING 215
SWIDTH 490 0
DWIDTH 7 0
BBX 7 8 0 0
BITMAP
1C
22
22
0C
04
C4
88
70
ENDCHAR

STARTCHAR afii10074
ENCODING 216
SWIDTH 629 0
DWIDTH 10 0
BBX 8 8 1 0
BITMAP
C2
42
42
42
84
84
8D
76
ENDCHAR

STARTCHAR afii10075
ENCODING 217
SWIDTH 635 0
DWIDTH 10 0
BBX 8 12 1 0
BITMAP
22
22
1C
00
C2
42
42
42
84
84
8D
76
ENDCHAR

STARTCHAR afii10076
ENCODING 218
SWIDTH 594 0
DWIDTH 9 0
BBX 7 8 1 0
BITMAP
C6
4A
48
70
90
88
88
8C
ENDCHAR

STARTCHAR afii10077
ENCODING 219
SWIDTH 646 0
DWIDTH 10 0
BBX 10 8 0 0
BITMAP
1FC0
0880
0880
0880
1100
1100
9140
6080
ENDCHAR

STARTCHAR afii10078
ENCODING 220
SWIDTH 854 0
DWIDTH 13 0
BBX 13 8 0 0
BITMAP
1818
0C30
0C50
0A50
12A0
D2A0
9128
6110
ENDCHAR

STARTCHAR afii10079
ENCODING 221
SWIDTH 644 0
DWIDTH 10 0
BBX 8 8 1 0
BITMAP
C2
42
42
7E
84
84
85
82
ENDCHAR

STARTCHAR afii10080
ENCODING 222
SWIDTH 531 0
DWIDTH 8 0
BBX 7 8 1 0
BITMAP
1C
62
42
82
82
84
8C
70
ENDCHAR

STARTCHAR afii10081
ENCODING 223
SWIDTH 635 0
DWIDTH 10 0
BBX 8 8 1 0
BITMAP
DC
62
42
42
84
84
85
82
ENDCHAR

STARTCHAR afii10082
ENCODING 224
SWIDTH 583 0
DWIDTH 9 0
BBX 9 11 0 -3
BITMAP
3700
1880
1080
2080
2080
2100
2300
5C00
4000
4000
E000
ENDCHAR

STARTCHAR afii10083
ENCODING 225
SWIDTH 458 0
DWIDTH 7 0
BBX 7 8 1 0
BITMAP
1C
66
42
80
80
80
88
70
ENDCHAR

STARTCHAR afii10084
ENCODING 226
SWIDTH 906 0
DWIDTH 14 0
BBX 13 8 1 0
BITMAP
DCE0
6310
4210
4210
8420
8420
8428
8410
ENDCHAR

STARTCHAR afii10085
ENCODING 227
SWIDTH 510 0
DWIDTH 8 0
BBX 8 11 0 -3
BITMAP
42
A3
21
21
22
12
14
18
90
D0
60
ENDCHAR

STARTCHAR afii10086
ENCODING 228
SWIDTH 759 0
DWIDTH 11 0
BBX 10 14 1 -3
BITMAP
01C0
0240
0200
1B80
6440
4440
8440
8880
8880
8980
7600
1000
9000
E000
ENDCHAR

STARTCHAR afii10087
ENCODING 229
SWIDTH 573 0
DWIDTH 9 0
BBX 10 8 0 0
BITMAP
1180
2AC0
0A00
0C00
0C00
1400
D500
6200
ENDCHAR

STARTCHAR afii10088
ENCODING 230
SWIDTH 635 0
DWIDTH 10 0
BBX 8 11 1 -3
BITMAP
C2
42
42
42
84
84
8D
77
01
01
06
ENDCHAR

STARTCHAR afii10089
ENCODING 231
SWIDTH 602 0
DWIDTH 9 0
BBX 6 8 2 0
BITMAP
C4
44
84
88
78
10
14
08
ENDCHAR

STARTCHAR afii10090
ENCODING 232
SWIDTH 896 0
DWIDTH 12 0
BBX 11 8 1 0
BITMAP
C440
4440
4440
4440
8880
8880
89A0
76C0
ENDCHAR

STARTCHAR afii10091
ENCODING 233
SWIDTH 895 0
DWIDTH 12 0
BBX 11 11 1 -3
BITMAP
C440
4440
4440
4440
8880
8880
88A0
7760
0020
0020
00C0
ENDCHAR

STARTCHAR afii10092
ENCODING 234
SWIDTH 573 0
DWIDTH 9 0
BBX 7 8 1 0
BITMAP
78
90
1C
22
42
42
44
38
ENDCHAR

STARTCHAR afii10093
ENCODING 235
SWIDTH 798 0
DWIDTH 12 0
BBX 10 8 1 0
BITMAP
E380
2080
7880
4480
8500
8500
8940
7080
ENDCHAR

STARTCHAR afii10094
ENCODING 236
SWIDTH 521 0
DWIDTH 8 0
BBX 6 8 1 0
BITMAP
E0
20
78
44
84
84
88
70
ENDCHAR

STARTCHAR afii10095
ENCODING 237
SWIDTH 448 0
DWIDTH 7 0
BBX 7 8 0 0
BITMAP
1C
22
02
1E
02
C4
8C
70
ENDCHAR

STARTCHAR afii10096
ENCODING 238
SWIDTH 805 0
DWIDTH 12 0
BBX 10 8 2 0
BITMAP
C380
4C40
4840
7040
9040
9080
9180
8E00
ENDCHAR

STARTCHAR afii10097
ENCODING 239
SWIDTH 592 0
DWIDTH 9 0
BBX 8 8 1 0
BITMAP
1E
22
42
42
3C
24
45
C6
ENDCHAR

STARTCHAR afii61352
ENCODING 240
SWIDTH 1000 0
DWIDTH 15 0
BBX 16 11 -1 0
BITMAP
1C1C
0424
0A20
0A26
0A29
0A51
1151
1152
114C
A080
C09C
ENDCHAR

STARTCHAR afii10071
ENCODING 241
SWIDTH 462 0
DWIDTH 7 0
BBX 7 11 1 0
BITMAP
24
24
00
1C
62
42
84
F8
80
84
78
ENDCHAR

STARTCHAR afii10099
ENCODING 242
SWIDTH 563 0
DWIDTH 10 0
BBX 7 15 1 -3
BITMAP
60
20
7C
20
5C
62
42
42
84
84
84
88
08
08
30
ENDCHAR

STARTCHAR afii10100
ENCODING 243
SWIDTH 510 0
DWIDTH 8 0
BBX 7 12 1 0
BITMAP
06
04
08
00
7E
22
22
20
40
40
40
E0
ENDCHAR

STARTCHAR afii10101
ENCODING 244
SWIDTH 469 0
DWIDTH 7 0
BBX 7 8 0 0
BITMAP
1C
66
42
F0
80
80
88
70
ENDCHAR

STARTCHAR afii10102
ENCODING 245
SWIDTH 448 0
DWIDTH 7 0
BBX 7 8 0 0
BITMAP
3C
46
42
30
08
84
C4
78
ENDCHAR

STARTCHAR afii10103
ENCODING 246
SWIDTH 344 0
DWIDTH 5 0
BBX 3 12 1 0
BITMAP
20
20
00
00
C0
40
40
40
80
80
A0
40
ENDCHAR

STARTCHAR afii10104
ENCODING 247
SWIDTH 344 0
DWIDTH 5 0
BBX 4 11 1 0
BITMAP
90
90
00
C0
40
40
40
80
80
A0
40
ENDCHAR

STARTCHAR afii10105
ENCODING 248
SWIDTH 344 0
DWIDTH 5 0
BBX 7 15 -2 -3
BITMAP
02
02
00
00
0C
04
04
04
08
08
08
08
10
D0
60
ENDCHAR

STARTCHAR afii10106
ENCODING 249
SWIDTH 850 0
DWIDTH 13 0
BBX 13 8 0 0
BITMAP
1FC0
0880
08F0
0888
1108
1108
9110
60E0
ENDCHAR

STARTCHAR afii10107
ENCODING 250
SWIDTH 845 0
DWIDTH 13 0
BBX 11 8 1 0
BITMAP
C200
4200
43C0
7E20
8420
8420
8440
8380
ENDCHAR

STARTCHAR afii10108
ENCODING 251
SWIDTH 635 0
DWIDTH 10 0
BBX 8 12 1 0
BITMAP
60
20
7C
20
5C
62
42
42
84
84
85
82
ENDCHAR

STARTCHAR afii10109
ENCODING 252
SWIDTH 594 0
DWIDTH 9 0
BBX 7 12 1 0
BITMAP
0C
08
10
00
C6
4A
48
70
90
88
88
8C
ENDCHAR

STARTCHAR section
ENCODING 253
SWIDTH 489 0
DWIDTH 7 0
BBX 7 14 0 -2
BITMAP
1C
26
22
30
50
48
48
24
24
14
18
88
88
70
ENDCHAR

STARTCHAR afii10110
ENCODING 254
SWIDTH 510 0
DWIDTH 8 0
BBX 8 15 0 -3
BITMAP
11
11
0E
00
42
A3
21
21
22
12
14
18
90
D0
60
ENDCHAR

STARTCHAR afii10193
ENCODING 255
SWIDTH 635 0
DWIDTH 10 0
BBX 8 11 1 -3
BITMAP
C2
42
42
42
84
84
8D
76
20
20
20
ENDCHAR
ENDFONT
